<?xml version="1.0" encoding="UTF-8"?>
<!-- Generator: visioncortex VTracer 0.6.3 -->
<svg version="1.1" xmlns="http://www.w3.org/2000/svg" width="512" height="512">
<path d="M0 0 C0.67 0.21 1.34 0.42 2.03 0.64 C19.21 6.18 35.66 15.08 50 26 C50.86 26.64 51.71 27.27 52.6 27.93 C67.04 39.14 80.04 52.66 90 68 C90.39 68.6 90.79 69.21 91.2 69.83 C107.08 94.44 118.02 123.66 118.2 153.21 C118.21 153.97 118.22 154.72 118.22 155.51 C118.45 187.07 118.45 187.07 115 201 C114.71 202.23 114.71 202.23 114.41 203.48 C110.2 220.89 103.54 237.3 93.74 252.33 C91.62 255.63 91 256.93 91 261 C92.92 263.45 92.92 263.45 95.5 265.81 C96.34 266.62 97.17 267.43 98.03 268.27 C100.16 270.26 102.36 272.17 104.58 274.07 C109.5 278.37 114.09 282.98 118.69 287.62 C120.04 288.98 120.04 288.98 121.42 290.37 C124.77 293.73 128.11 297.09 131.45 300.46 C134.73 303.77 138.02 307.07 141.31 310.38 C142.16 311.24 143.02 312.1 143.9 312.98 C148.13 317.24 152.44 321.32 156.99 325.23 C163.62 331.07 169.78 337.47 176.05 343.7 C177.85 345.48 179.66 347.27 181.48 349.04 C184.12 351.63 186.74 354.23 189.36 356.84 C190.17 357.62 190.97 358.41 191.81 359.21 C200.3 367.74 203.9 377.19 204.04 389.24 C203.63 397.71 201.95 404.85 197 411.81 C187.54 418.71 177.1 420.93 165.66 419.76 C154.49 417.82 146.9 409.33 139.25 401.59 C138.2 400.54 137.16 399.5 136.11 398.45 C133.29 395.64 130.49 392.81 127.68 389.99 C124.74 387.03 121.79 384.08 118.84 381.12 C113.27 375.54 107.7 369.95 102.14 364.36 C95.8 357.99 89.46 351.62 83.11 345.26 C70.06 332.18 57.03 319.1 44 306 C40.08 307.51 36.83 309.32 33.31 311.62 C11.36 325.52 -16.07 333.96 -42.07 334.24 C-42.81 334.25 -43.56 334.26 -44.33 334.27 C-67.17 334.5 -88.36 332.85 -110 325 C-111.23 324.56 -112.45 324.12 -113.71 323.66 C-134.57 315.74 -153.58 304.08 -169.53 288.43 C-171.07 286.93 -172.64 285.46 -174.2 283.98 C-187.06 271.73 -196.92 257.77 -205 242 C-205.35 241.32 -205.7 240.65 -206.06 239.95 C-226.66 199.73 -229.2 152.95 -216 110 C-207.23 84.84 -193.76 63.69 -176 44 C-174.99 42.88 -174.99 42.88 -173.95 41.73 C-159.8 26.88 -141.52 15.5 -123 7 C-122.35 6.69 -121.71 6.39 -121.04 6.07 C-83.53 -11.5 -39.15 -12.3 0 0 Z M-143 76 C-143.51 76.46 -144.01 76.92 -144.54 77.4 C-165.66 97.13 -177.06 128.97 -178.28 157.35 C-179.22 194.34 -166.26 226.19 -141 253 C-140.39 253.68 -139.78 254.35 -139.15 255.05 C-119.38 276.08 -87.78 289.98 -59 291 C-57.79 291.05 -56.57 291.1 -55.32 291.16 C-24.76 292.04 5.38 282.77 28 262 C29.31 260.89 30.62 259.79 31.94 258.69 C58.1 235.45 74.01 208.55 77 173 C78.9 138.61 68.58 105.98 45.69 80 C44.13 78.32 42.57 76.66 41 75 C40.16 74.09 39.31 73.18 38.44 72.25 C17.62 50.51 -13.48 36.59 -43.62 35.8 C-82.75 35.3 -115.46 47.71 -143 76 Z " fill="#717171" transform="translate(266,50)"/>
</svg>
